<?xml version="1.0" encoding="utf-8"?>
<!-- Generator: Adobe Illustrator 22.0.0, SVG Export Plug-In . SVG Version: 6.00 Build 0)  -->
<svg version="1.1"
	 id="svg9412" inkscape:version="1.0.2 (e86c8708, 2021-01-15)" sodipodi:docname="Kotani Pay logo_Dark background.svg" xmlns:cc="http://creativecommons.org/ns#" xmlns:dc="http://purl.org/dc/elements/1.1/" xmlns:inkscape="http://www.inkscape.org/namespaces/inkscape" xmlns:rdf="http://www.w3.org/1999/02/22-rdf-syntax-ns#" xmlns:sodipodi="http://sodipodi.sourceforge.net/DTD/sodipodi-0.dtd" xmlns:svg="http://www.w3.org/2000/svg"
	 xmlns="http://www.w3.org/2000/svg" xmlns:xlink="http://www.w3.org/1999/xlink" x="0px" y="0px" viewBox="0 0 1732.3 771.7"
	 style="enable-background:new 0 0 1732.3 771.7;" xml:space="preserve">
<style type="text/css">
	.st0{fill:#F09F20;}
	.st1{fill:#FFFFFF;}
</style>
<sodipodi:namedview  bordercolor="#666666" borderopacity="1.0" fit-margin-bottom="0" fit-margin-left="0" fit-margin-right="0" fit-margin-top="0" id="base" inkscape:current-layer="layer1" inkscape:cx="4889.2084" inkscape:cy="4944.7977" inkscape:document-rotation="0" inkscape:document-units="mm" inkscape:pageopacity="0.0" inkscape:pageshadow="2" inkscape:window-height="844" inkscape:window-maximized="0" inkscape:window-width="1440" inkscape:window-x="0" inkscape:window-y="0" inkscape:zoom="0.056592965" pagecolor="#ffffff" showgrid="false">
	</sodipodi:namedview>
<g id="layer1" transform="translate(830.97198,47.070549)" inkscape:groupmode="layer" inkscape:label="Layer 1">
	<g id="g2105-8-9-1" transform="matrix(1.7936124,0,0,1.7936124,-681.84086,73.584064)">
		<g id="g2033-5-5-4">
			<g id="g2003-3-3-0">
				<g id="g1991-7-3-8">
				</g>
				<g id="g2001-6-3-1">
					<g id="g1995-8-8-0">
						<g id="g1993-6-5-3">
						</g>
					</g>
					<g id="g1999-7-8-1">
						<g id="g1997-1-9-1">
						</g>
					</g>
				</g>
			</g>
			<g id="g2017-8-6-5">
				<g id="g2005-4-0-0">
				</g>
				<g id="g2015-9-4-8">
					<g id="g2009-7-2-4">
						<g id="g2007-3-3-9">
						</g>
					</g>
					<g id="g2013-1-3-3">
						<g id="g2011-0-7-0">
						</g>
					</g>
				</g>
			</g>
			<g id="g2031-2-0-5">
				<g id="g2019-3-0-2">
				</g>
				<g id="g2029-7-1-3">
					<g id="g2023-1-0-8">
						<g id="g2021-8-3-7">
						</g>
					</g>
					<g id="g2027-9-0-8">
						<g id="g2025-3-0-0">
						</g>
					</g>
				</g>
			</g>
		</g>
		<g id="g2083-7-3-4">
			<g id="g2049-4-8-5">
				<g id="g2037-8-3-7">
					<path id="path2035-0-6-1" class="st0" d="M573.4,73c-10.9,0-19.8,8.9-19.8,19.8c0,11,8.9,19.8,19.8,19.8c0,0,0,0,0,0
						c11,0,19.8-8.9,19.8-19.8C593.3,81.8,584.4,73,573.4,73C573.5,73,573.4,73,573.4,73z M570.9,77.7c0.1,0,0.2,0,0.2,0
						c1,0.2,1.1,1.7,0.1,2c-7.1,1.4-11.9,7.9-10.8,15c0,1.4-1.7,2-1.7,0.3c-1.4-8.2,3.7-15.6,11.9-17.3
						C570.7,77.8,570.8,77.8,570.9,77.7L570.9,77.7z M532.1,86c-9.5,0-17.3,7.7-17.3,17.3c0,0,0,0,0,0c0,9.5,7.7,17.3,17.3,17.3
						c0,0,0,0,0,0c9.5,0,17.3-7.7,17.3-17.3C549.4,93.7,541.7,86,532.1,86C532.1,86,532.1,86,532.1,86z M529.5,90.2
						c0.1,0,0.1,0,0.2,0c0.9,0.1,1.2,1.5,0.2,1.7c-6.2,1.4-10.2,7.1-9.4,13.3c0.3,0.9-1.4,1.4-1.7,0.3c-1.1-7.4,3.1-13.9,10.5-15.3
						C529.3,90.2,529.4,90.2,529.5,90.2L529.5,90.2z M560.4,97.6c1.1,0,1.1,2,0,2C559,99.6,559,97.9,560.4,97.6z M520.8,107.8
						c1.1,0,1.1,1.7,0,1.7S519.6,107.8,520.8,107.8z M557.5,126.3c-8.7,0-15.8,7.1-15.8,15.9c0,8.8,7.1,15.9,15.9,15.9
						c8.8,0,15.9-7.1,15.9-15.9c0,0,0,0,0,0C573.5,133.4,566.4,126.3,557.5,126.3C557.6,126.3,557.6,126.3,557.5,126.3z
						 M555.6,130.2c0.7,0.1,1,1.2,0,1.4c-5.7,1.1-9.4,6.2-8.5,11.9c0,1.1-1.4,1.4-1.4,0.6c-0.9-6.5,3.1-12.5,9.6-13.9
						C555.5,130.2,555.6,130.2,555.6,130.2L555.6,130.2z M547.1,145.8c1.1,0,1.1,1.7,0,1.7C546.3,147.5,546.3,145.8,547.1,145.8z"/>
				</g>
				<g id="g2047-4-0-0">
					<g id="g2041-0-4-6">
						<g id="g2039-5-0-0">
						</g>
					</g>
					<g id="g2045-7-9-3">
						<g id="g2043-0-2-3">
						</g>
					</g>
				</g>
			</g>
			<g id="g2065-0-4-5">
				<g id="g2053-5-9-0">
				</g>
				<g id="g2063-6-2-2">
					<g id="g2057-7-9-3">
						<g id="g2055-8-1-2">
						</g>
					</g>
					<g id="g2061-0-0-7">
						<g id="g2059-6-9-1">
						</g>
					</g>
				</g>
			</g>
			<g id="g2081-5-3-0">
				<g id="g2069-7-0-0">
				</g>
				<g id="g2079-3-0-9">
					<g id="g2073-4-3-7">
						<g id="g2071-3-0-1">
						</g>
					</g>
					<g id="g2077-0-1-7">
						<g id="g2075-4-9-4">
						</g>
					</g>
				</g>
			</g>
		</g>
		<g id="g2103-8-8-5" transform="translate(1.220703e-4,28.5712)">
			<path id="path2085-7-6-1" class="st1" d="M160.8,108.1h6.9v25.4l27-25.4h9.2l-32.5,30.4l35.1,37.3h-9l-29.7-31.6v31.6h-6.9V108.1
				z"/>
			<path id="path2087-5-9-7" class="st1" d="M239.2,124.5c7.7,0,14.1,2.8,19.2,8.4c4.6,5.1,6.9,11.1,6.9,18.1c0,7-2.4,13.1-7.3,18.4
				c-4.8,5.2-11.1,7.8-18.7,7.8c-7.7,0-13.9-2.6-18.8-7.8c-4.8-5.2-7.3-11.4-7.3-18.4c0-6.9,2.3-13,6.9-18
				C225.1,127.3,231.5,124.5,239.2,124.5z M239.2,130.8c-5.3,0-9.9,2-13.8,5.9c-3.8,4-5.8,8.7-5.8,14.4c0,3.6,0.9,7,2.6,10.1
				c1.7,3.1,4.1,5.6,7.1,7.3c3,1.7,6.2,2.5,9.8,2.5c3.6,0,6.8-0.8,9.8-2.5c3-1.7,5.3-4.1,7.1-7.3c1.7-3.1,2.6-6.5,2.6-10.1
				c0-5.6-1.9-10.4-5.8-14.4C249.1,132.7,244.5,130.8,239.2,130.8z"/>
			<path id="path2089-9-0-8" class="st1" d="M282.8,107.1h6.5v18.6h10.2v5.5h-10.2v44.6h-6.5v-44.6H274v-5.5h8.8V107.1z"/>
			<path id="path2091-5-1-2" class="st1" d="M359.2,125.7v50.1h-6.4v-8.6c-2.7,3.3-5.7,5.8-9.1,7.4c-3.3,1.7-7,2.5-11,2.5
				c-7.1,0-13.2-2.6-18.2-7.7c-5-5.2-7.5-11.4-7.5-18.8c0-7.2,2.5-13.4,7.6-18.5c5.1-5.1,11.2-7.7,18.3-7.7c4.1,0,7.8,0.9,11.1,2.6
				c3.3,1.7,6.3,4.4,8.8,7.9v-9.2L359.2,125.7z M333.4,130.7c-3.6,0-6.9,0.9-9.9,2.7c-3,1.7-5.5,4.2-7.3,7.4
				c-1.8,3.2-2.7,6.6-2.7,10.1c0,3.5,0.9,6.9,2.7,10.1c1.8,3.2,4.2,5.7,7.3,7.6c3.1,1.8,6.4,2.7,9.9,2.7c3.5,0,6.9-0.9,10-2.7
				c3.2-1.8,5.6-4.2,7.3-7.2c1.7-3,2.6-6.5,2.6-10.3c0-5.8-1.9-10.7-5.8-14.5C343.7,132.6,339,130.7,333.4,130.7L333.4,130.7z"/>
			<path id="path2093-3-6-5" class="st1" d="M373.7,125.7h6.4v9c2.6-3.4,5.4-6,8.6-7.7c3.1-1.7,6.5-2.6,10.2-2.6
				c3.7,0,7.1,1,9.9,2.9c2.9,1.9,5.1,4.5,6.4,7.7s2.1,8.2,2.1,15.1v25.8H411v-23.9c0-5.8-0.2-9.6-0.7-11.6c-0.8-3.3-2.2-5.8-4.3-7.5
				c-2.1-1.7-4.9-2.5-8.3-2.5c-3.9,0-7.4,1.3-10.5,3.9c-3.1,2.6-5.1,5.8-6.1,9.6c-0.6,2.5-0.9,7-0.9,13.6v18.4h-6.4V125.7z"/>
			<path id="path2095-2-4-4" class="st1" d="M433.4,105.1c1.5,0,2.7,0.5,3.8,1.6c1,1,1.6,2.3,1.6,3.8c0,1.4-0.5,2.7-1.6,3.7
				c-1,1-2.3,1.6-3.8,1.6c-1.4,0-2.7-0.5-3.7-1.6c-1-1-1.6-2.3-1.6-3.7c0-1.5,0.5-2.7,1.6-3.8S432,105.1,433.4,105.1z M430.2,125.7
				h6.5v50.1h-6.5V125.7z"/>
			<path id="path2097-7-4-5" class="st1" d="M477.3,108.1h13.5c7.7,0,13,0.3,15.7,1c3.9,1,7,2.9,9.5,5.9c2.5,2.9,3.7,6.7,3.7,11.1
				c0,4.5-1.2,8.2-3.6,11.2c-2.4,2.9-5.7,4.9-9.9,5.9c-3.1,0.7-8.8,1.1-17.2,1.1h-4.8v31.5h-6.8L477.3,108.1z M484.1,114.7v23
				l11.5,0.1c4.6,0,8-0.4,10.2-1.2c2.1-0.9,3.8-2.2,5.1-4.1c1.2-1.9,1.8-4,1.8-6.4c0-2.3-0.6-4.3-1.8-6.2c-1.2-1.9-2.9-3.3-4.9-4.1
				c-2-0.8-5.3-1.2-9.9-1.2L484.1,114.7z"/>
			<path id="path2099-3-8-3" class="st1" d="M582,125.7v50.1h-6.4v-8.6c-2.7,3.3-5.7,5.8-9.1,7.4c-3.3,1.7-7,2.5-11,2.5
				c-7.1,0-13.2-2.6-18.2-7.7c-5-5.2-7.5-11.4-7.5-18.8c0-7.2,2.5-13.4,7.6-18.5c5.1-5.1,11.2-7.7,18.3-7.7c4.1,0,7.8,0.9,11.1,2.6
				c3.3,1.7,6.3,4.4,8.8,7.9v-9.2L582,125.7z M556.2,130.7c-3.6,0-6.9,0.9-9.9,2.7c-3,1.7-5.5,4.2-7.3,7.4
				c-1.8,3.2-2.7,6.6-2.7,10.1c0,3.5,0.9,6.9,2.7,10.1c1.8,3.2,4.2,5.7,7.3,7.6c3.1,1.8,6.4,2.7,9.9,2.7c3.5,0,6.9-0.9,10-2.7
				s5.6-4.2,7.3-7.2c1.7-3,2.6-6.5,2.6-10.3c0-5.8-1.9-10.7-5.8-14.5C566.5,132.6,561.8,130.7,556.2,130.7L556.2,130.7z"/>
			<path id="path2101-9-6-0" class="st1" d="M591.1,125.7h6.8l17.2,38.6l16.7-38.6h6.9l-29.9,68.4h-6.8l9.7-22.1L591.1,125.7z"/>
		</g>
	</g>
</g>
</svg>
