<?xml version="1.0" encoding="UTF-8" standalone="no"?>
<svg
   xmlns:dc="http://purl.org/dc/elements/1.1/"
   xmlns:cc="http://creativecommons.org/ns#"
   xmlns:rdf="http://www.w3.org/1999/02/22-rdf-syntax-ns#"
   xmlns:svg="http://www.w3.org/2000/svg"
   xmlns="http://www.w3.org/2000/svg"
   xmlns:sodipodi="http://sodipodi.sourceforge.net/DTD/sodipodi-0.dtd"
   xmlns:inkscape="http://www.inkscape.org/namespaces/inkscape"
   width="611.12042mm"
   height="272.22266mm"
   viewBox="0 0 611.12042 272.22266"
   version="1.1"
   id="svg9412"
   inkscape:version="1.0.2 (e86c8708, 2021-01-15)"
   sodipodi:docname="Kotani Pay logo_Light background.svg">
  <defs
     id="defs9406" />
  <sodipodi:namedview
     id="base"
     pagecolor="#ffffff"
     bordercolor="#666666"
     borderopacity="1.0"
     inkscape:pageopacity="0.0"
     inkscape:pageshadow="2"
     inkscape:zoom="0.056592965"
     inkscape:cx="5277.9493"
     inkscape:cy="4312.1461"
     inkscape:document-units="mm"
     inkscape:current-layer="layer1"
     inkscape:document-rotation="0"
     showgrid="false"
     fit-margin-top="0"
     fit-margin-left="0"
     fit-margin-right="0"
     fit-margin-bottom="0"
     inkscape:window-width="1440"
     inkscape:window-height="844"
     inkscape:window-x="0"
     inkscape:window-y="0"
     inkscape:window-maximized="0" />
  <metadata
     id="metadata9409">
    <rdf:RDF>
      <cc:Work
         rdf:about="">
        <dc:format>image/svg+xml</dc:format>
        <dc:type
           rdf:resource="http://purl.org/dc/dcmitype/StillImage" />
        <dc:title></dc:title>
      </cc:Work>
    </rdf:RDF>
  </metadata>
  <g
     inkscape:label="Layer 1"
     inkscape:groupmode="layer"
     id="layer1"
     transform="translate(830.97198,47.070549)">
    <g
       id="g2105-8-9-1"
       transform="matrix(1.7936124,0,0,1.7936124,-681.84086,73.584064)">
      <g
         id="g2033-5-5-4">
        <g
           id="g2003-3-3-0">
          <g
             id="g1991-7-3-8" />
          <g
             id="g2001-6-3-1">
            <g
               id="g1995-8-8-0">
              <g
                 id="g1993-6-5-3" />
            </g>
            <g
               id="g1999-7-8-1">
              <g
                 id="g1997-1-9-1" />
            </g>
          </g>
        </g>
        <g
           id="g2017-8-6-5">
          <g
             id="g2005-4-0-0" />
          <g
             id="g2015-9-4-8">
            <g
               id="g2009-7-2-4">
              <g
                 id="g2007-3-3-9" />
            </g>
            <g
               id="g2013-1-3-3">
              <g
                 id="g2011-0-7-0" />
            </g>
          </g>
        </g>
        <g
           id="g2031-2-0-5">
          <g
             id="g2019-3-0-2" />
          <g
             id="g2029-7-1-3">
            <g
               id="g2023-1-0-8">
              <g
                 id="g2021-8-3-7" />
            </g>
            <g
               id="g2027-9-0-8">
              <g
                 id="g2025-3-0-0" />
            </g>
          </g>
        </g>
      </g>
      <g
         id="g2083-7-3-4">
        <g
           id="g2049-4-8-5">
          <g
             id="g2037-8-3-7">
            <path
               id="path2035-0-6-1"
               style="fill:#f09f20;fill-opacity:1;stroke-width:3.7677"
               d="m -3030.6348,1652.9199 a 26.373959,26.373959 0 0 0 -26.2578,26.3731 26.373959,26.373959 0 0 0 26.3731,26.375 26.373959,26.373959 0 0 0 26.3711,-26.375 26.373959,26.373959 0 0 0 -26.3711,-26.3731 26.373959,26.373959 0 0 0 -0.1153,0 z m -3.3203,6.3672 c 0.1062,0 0.207,0.01 0.3008,0.025 1.3135,0.2576 1.4379,2.3207 0.1191,2.6504 -9.4192,1.8838 -15.8254,10.5495 -14.3183,19.9687 0,1.8839 -2.2598,2.6337 -2.2598,0.3731 -1.8838,-10.9264 4.8959,-20.7199 15.8223,-22.9805 0.1177,-0.024 0.2298,-0.035 0.3359,-0.037 z m -51.5742,10.9609 a 22.98302,22.98302 0 0 0 -22.9844,22.9864 22.98302,22.98302 0 0 0 22.9844,22.9844 22.98302,22.98302 0 0 0 22.9805,-22.9844 22.98302,22.98302 0 0 0 -22.9805,-22.9864 z m -3.4941,5.6133 c 0.088,0 0.171,5e-4 0.2519,0.014 1.1333,0.1854 1.5453,1.9555 0.2266,2.2852 -8.289,1.8838 -13.56,9.4239 -12.4297,17.7128 0.3768,1.1304 -1.885,1.8802 -2.2617,0.3731 -1.5071,-9.796 4.1434,-18.4579 13.9394,-20.3418 0.094,-0.024 0.1859,-0.038 0.2735,-0.043 z m 41.1699,9.8379 c 1.5071,0 1.5071,2.6348 0,2.6348 -1.8839,0 -1.8839,-2.258 0,-2.6348 z m -52.7481,13.5625 c 1.5071,0 1.5071,2.2617 0,2.2617 -1.5071,0 -1.5071,-2.2617 0,-2.2617 z m 48.8711,24.4922 a 21.099167,21.099167 0 0 0 -20.9863,21.0957 21.099167,21.099167 0 0 0 21.0957,21.1016 21.099167,21.099167 0 0 0 21.1016,-21.1016 21.099167,21.099167 0 0 0 -21.1016,-21.0957 21.099167,21.099167 0 0 0 -0.1094,0 z m -2.5,5.2305 c 0.8809,0.1133 1.2895,1.5961 -0.029,1.9258 -7.5354,1.507 -12.4311,8.2888 -11.3007,15.8242 0,1.5071 -1.8829,1.8842 -1.8829,0.7539 -1.1303,-8.6657 4.1449,-16.5791 12.8106,-18.4629 0.1414,-0.047 0.2765,-0.057 0.4023,-0.041 z m -11.33,20.7656 c 1.507,0 1.507,2.2617 0,2.2617 -1.1304,0 -1.1304,-2.2617 0,-2.2617 z"
               transform="matrix(0.26541333,0,0,0.26541333,952.84066,-456.50675)" />
          </g>
          <g
             id="g2047-4-0-0">
            <g
               id="g2041-0-4-6">
              <g
                 id="g2039-5-0-0" />
            </g>
            <g
               id="g2045-7-9-3">
              <g
                 id="g2043-0-2-3" />
            </g>
          </g>
        </g>
        <g
           id="g2065-0-4-5">
          <g
             id="g2053-5-9-0" />
          <g
             id="g2063-6-2-2">
            <g
               id="g2057-7-9-3">
              <g
                 id="g2055-8-1-2" />
            </g>
            <g
               id="g2061-0-0-7">
              <g
                 id="g2059-6-9-1" />
            </g>
          </g>
        </g>
        <g
           id="g2081-5-3-0">
          <g
             id="g2069-7-0-0" />
          <g
             id="g2079-3-0-9">
            <g
               id="g2073-4-3-7">
              <g
                 id="g2071-3-0-1" />
            </g>
            <g
               id="g2077-0-1-7">
              <g
                 id="g2075-4-9-4" />
            </g>
          </g>
        </g>
      </g>
      <g
         aria-label="Kotani Pay"
         transform="translate(1.220703e-4,28.5712)"
         id="g2103-8-8-5"
         style="font-size:33.2617px;font-family:CenturyGothic;fill:#ffffff;fill-opacity:1"
         class="st3 st4 st5">
        <path
           d="m 2.9071505,-23.890606 h 2.4361597 v 8.965068 l 9.5335048,-8.965068 h 3.231972 L 6.6263542,-13.171503 19.002045,0 H 15.835038 L 5.3433102,-11.14137 V 0 H 2.9071505 Z"
           style="font-size:33.2617px;font-family:CenturyGothic;fill:#ffffff;fill-opacity:1"
           id="path2085-7-6-1" />
        <path
           d="m 30.581924,-18.125028 q 4.076507,0 6.756283,2.955874 2.436159,2.696017 2.436159,6.3827382 0,3.7029627 -2.582329,6.4801847 -2.566088,2.7609809 -6.610113,2.7609809 -4.060266,0 -6.642595,-2.7609809 -2.566089,-2.777222 -2.566089,-6.4801847 0,-3.6704802 2.43616,-6.3664972 2.679776,-2.972115 6.772524,-2.972115 z m 0,2.225026 q -2.825945,0 -4.856078,2.095097 -2.030133,2.095098 -2.030133,5.0672124 0,1.9164456 0.92574,3.5730342 0.925741,1.6565885 2.501124,2.5660881 1.575383,0.8932585 3.459347,0.8932585 1.883963,0 3.459347,-0.8932585 1.575383,-0.9094996 2.501124,-2.5660881 0.92574,-1.6565886 0.92574,-3.5730342 0,-2.9721144 -2.046374,-5.0672124 -2.030133,-2.095097 -4.839837,-2.095097 z"
           style="font-size:33.2617px;font-family:CenturyGothic;fill:#ffffff;fill-opacity:1"
           id="path2087-5-9-7" />
        <path
           d="m 45.962213,-24.231668 h 2.28999 v 6.56139 h 3.605516 v 1.948928 H 48.252203 V 0 h -2.28999 V -15.72135 H 42.86017 v -1.948928 h 3.102043 z"
           style="font-size:33.2617px;font-family:CenturyGothic;fill:#ffffff;fill-opacity:1"
           id="path2089-9-0-8" />
        <path
           d="M 72.889896,-17.670278 V 0 h -2.241267 v -3.037079 q -1.429213,1.7377939 -3.21573,2.61481133 -1.770276,0.87701747 -3.881615,0.87701747 -3.751686,0 -6.41522,-2.7122577 -2.647294,-2.7284988 -2.647294,-6.6263543 0,-3.8166498 2.679776,-6.5289078 2.679776,-2.712258 6.447703,-2.712258 2.176302,0 3.930337,0.925741 1.770276,0.925741 3.102043,2.777222 v -3.248213 z m -9.094996,1.737794 q -1.900204,0 -3.50807,0.941982 -1.607865,0.92574 -2.566088,2.614811 -0.941981,1.689071 -0.941981,3.5730342 0,1.8677223 0.958222,3.5730341 0.958223,1.7053117 2.566088,2.6635345 1.624107,0.9419818 3.475588,0.9419818 1.867723,0 3.540552,-0.9419818 1.67283,-0.9419817 2.566088,-2.5498471 0.9095,-1.6078653 0.9095,-3.6217573 0,-3.0695614 -2.030133,-5.1321764 -2.013892,-2.062615 -4.969766,-2.062615 z"
           style="font-size:33.2617px;font-family:CenturyGothic;fill:#ffffff;fill-opacity:1"
           id="path2091-5-1-2" />
        <path
           d="m 78.02207,-17.670278 h 2.273749 v 3.167008 q 1.36425,-1.819 3.020838,-2.712258 1.656589,-0.9095 3.605517,-0.9095 1.981409,0 3.50807,1.006946 1.542901,1.006946 2.273749,2.712258 0.730847,1.705312 0.730847,5.310828 V 0 h -2.257508 v -8.4291124 q 0,-3.0533196 -0.259857,-4.0765076 -0.406026,-1.754034 -1.52666,-2.631052 -1.120633,-0.893258 -2.923391,-0.893258 -2.062615,0 -3.702963,1.364249 -1.624106,1.364249 -2.14382,3.378141 -0.324822,1.3155265 -0.324822,4.8073553 V 0 H 78.02207 Z"
           style="font-size:33.2617px;font-family:CenturyGothic;fill:#ffffff;fill-opacity:1"
           id="path2093-3-6-5" />
        <path
           d="m 99.086735,-24.946275 q 0.779571,0 1.331765,0.552196 0.5522,0.552197 0.5522,1.331768 0,0.76333 -0.5522,1.315526 -0.552194,0.552196 -1.331765,0.552196 -0.76333,0 -1.315526,-0.552196 -0.552197,-0.552196 -0.552197,-1.315526 0,-0.779571 0.552197,-1.331768 0.552196,-0.552196 1.315526,-0.552196 z m -1.136875,7.275997 h 2.28999 V 0 h -2.28999 z"
           style="font-size:33.2617px;font-family:CenturyGothic;fill:#ffffff;fill-opacity:1"
           id="path2095-2-4-4" />
        <path
           d="m 114.56446,-23.890606 h 4.75863 q 4.09275,0 5.52197,0.357304 2.04637,0.503473 3.34566,2.078856 1.29928,1.559142 1.29928,3.930338 0,2.387436 -1.2668,3.946578 -1.26681,1.542901 -3.49183,2.078856 -1.62411,0.389786 -6.07416,0.389786 H 116.9519 V 0 h -2.38744 z m 2.38744,2.322473 v 8.120532 l 4.04402,0.04872 q 2.45241,0 3.58928,-0.438509 1.13687,-0.45475 1.78652,-1.445455 0.64964,-1.006945 0.64964,-2.241266 0,-1.201839 -0.64964,-2.192544 -0.64965,-1.006946 -1.72156,-1.429214 -1.05567,-0.422267 -3.47558,-0.422267 z"
           style="font-size:33.2617px;font-family:CenturyGothic;fill:#ffffff;fill-opacity:1"
           id="path2097-7-4-5" />
        <path
           d="M 151.49665,-17.670278 V 0 h -2.24127 v -3.037079 q -1.42921,1.7377939 -3.21573,2.61481133 -1.77028,0.87701747 -3.88162,0.87701747 -3.75168,0 -6.41522,-2.7122577 -2.64729,-2.7284988 -2.64729,-6.6263543 0,-3.8166498 2.67978,-6.5289078 2.67977,-2.712258 6.4477,-2.712258 2.1763,0 3.93034,0.925741 1.77027,0.925741 3.10204,2.777222 v -3.248213 z m -9.095,1.737794 q -1.9002,0 -3.50807,0.941982 -1.60786,0.92574 -2.56609,2.614811 -0.94198,1.689071 -0.94198,3.5730342 0,1.8677223 0.95822,3.5730341 0.95823,1.7053117 2.56609,2.6635345 1.62411,0.9419818 3.47559,0.9419818 1.86772,0 3.54055,-0.9419818 1.67283,-0.9419817 2.56609,-2.5498471 0.9095,-1.6078653 0.9095,-3.6217573 0,-3.0695614 -2.03013,-5.1321764 -2.0139,-2.062615 -4.96977,-2.062615 z"
           style="font-size:33.2617px;font-family:CenturyGothic;fill:#ffffff;fill-opacity:1"
           id="path2099-3-8-3" />
        <path
           d="m 154.72862,-17.670278 h 2.40367 l 6.07416,13.6100119 5.89551,-13.6100119 h 2.41992 L 160.98143,6.4639436 h -2.40368 l 3.41062,-7.7957109 z"
           style="font-size:33.2617px;font-family:CenturyGothic;fill:#ffffff;fill-opacity:1"
           id="path2101-9-6-0" />
      </g>
    </g>
    <g
       id="g5906"
       transform="matrix(1.7936103,0,0,1.7936103,-681.84085,73.584027)">
      <g
         id="g5838">
        <g
           id="g5808">
          <g
             id="g5796" />
          <g
             id="g5806">
            <g
               id="g5800">
              <g
                 id="g5798" />
            </g>
            <g
               id="g5804">
              <g
                 id="g5802" />
            </g>
          </g>
        </g>
        <g
           id="g5822">
          <g
             id="g5810" />
          <g
             id="g5820">
            <g
               id="g5814">
              <g
                 id="g5812" />
            </g>
            <g
               id="g5818">
              <g
                 id="g5816" />
            </g>
          </g>
        </g>
        <g
           id="g5836">
          <g
             id="g5824" />
          <g
             id="g5834">
            <g
               id="g5828">
              <g
                 id="g5826" />
            </g>
            <g
               id="g5832">
              <g
                 id="g5830" />
            </g>
          </g>
        </g>
      </g>
      <g
         id="g5884">
        <g
           id="g5854">
          <g
             id="g5842">
            <path
               id="path5840"
               style="fill:#f09f20;fill-opacity:1;stroke-width:3.7677"
               d="m -3030.6348,1652.9199 a 26.373959,26.373959 0 0 0 -26.2578,26.3731 26.373959,26.373959 0 0 0 26.3731,26.375 26.373959,26.373959 0 0 0 26.3711,-26.375 26.373959,26.373959 0 0 0 -26.3711,-26.3731 26.373959,26.373959 0 0 0 -0.1153,0 z m -3.3203,6.3672 c 0.1062,0 0.207,0.01 0.3008,0.025 1.3135,0.2576 1.4379,2.3207 0.1191,2.6504 -9.4192,1.8838 -15.8254,10.5495 -14.3183,19.9687 0,1.8839 -2.2598,2.6337 -2.2598,0.3731 -1.8838,-10.9264 4.8959,-20.7199 15.8223,-22.9805 0.1177,-0.024 0.2298,-0.035 0.3359,-0.037 z m -51.5742,10.9609 a 22.98302,22.98302 0 0 0 -22.9844,22.9864 22.98302,22.98302 0 0 0 22.9844,22.9844 22.98302,22.98302 0 0 0 22.9805,-22.9844 22.98302,22.98302 0 0 0 -22.9805,-22.9864 z m -3.4941,5.6133 c 0.088,0 0.171,5e-4 0.2519,0.014 1.1333,0.1854 1.5453,1.9555 0.2266,2.2852 -8.289,1.8838 -13.56,9.4239 -12.4297,17.7128 0.3768,1.1304 -1.885,1.8802 -2.2617,0.3731 -1.5071,-9.796 4.1434,-18.4579 13.9394,-20.3418 0.094,-0.024 0.1859,-0.038 0.2735,-0.043 z m 41.1699,9.8379 c 1.5071,0 1.5071,2.6348 0,2.6348 -1.8839,0 -1.8839,-2.258 0,-2.6348 z m -52.7481,13.5625 c 1.5071,0 1.5071,2.2617 0,2.2617 -1.5071,0 -1.5071,-2.2617 0,-2.2617 z m 48.8711,24.4922 a 21.099167,21.099167 0 0 0 -20.9863,21.0957 21.099167,21.099167 0 0 0 21.0957,21.1016 21.099167,21.099167 0 0 0 21.1016,-21.1016 21.099167,21.099167 0 0 0 -21.1016,-21.0957 21.099167,21.099167 0 0 0 -0.1094,0 z m -2.5,5.2305 c 0.8809,0.1133 1.2895,1.5961 -0.029,1.9258 -7.5354,1.507 -12.4311,8.2888 -11.3007,15.8242 0,1.5071 -1.8829,1.8842 -1.8829,0.7539 -1.1303,-8.6657 4.1449,-16.5791 12.8106,-18.4629 0.1414,-0.047 0.2765,-0.057 0.4023,-0.041 z m -11.33,20.7656 c 1.507,0 1.507,2.2617 0,2.2617 -1.1304,0 -1.1304,-2.2617 0,-2.2617 z"
               transform="matrix(0.26541333,0,0,0.26541333,952.84066,-456.50675)" />
          </g>
          <g
             id="g5852">
            <g
               id="g5846">
              <g
                 id="g5844" />
            </g>
            <g
               id="g5850">
              <g
                 id="g5848" />
            </g>
          </g>
        </g>
        <g
           id="g5868">
          <g
             id="g5856" />
          <g
             id="g5866">
            <g
               id="g5860">
              <g
                 id="g5858" />
            </g>
            <g
               id="g5864">
              <g
                 id="g5862" />
            </g>
          </g>
        </g>
        <g
           id="g5882">
          <g
             id="g5870" />
          <g
             id="g5880">
            <g
               id="g5874">
              <g
                 id="g5872" />
            </g>
            <g
               id="g5878">
              <g
                 id="g5876" />
            </g>
          </g>
        </g>
      </g>
      <g
         aria-label="Kotani Pay"
         transform="translate(1.220703e-4,28.5712)"
         id="g5904"
         style="font-size:33.2617px;font-family:CenturyGothic;fill:#ffffff;fill-opacity:1"
         class="st3 st4 st5">
        <path
           d="m 2.9071505,-23.890606 h 2.4361597 v 8.965068 l 9.5335048,-8.965068 h 3.231972 L 6.6263542,-13.171503 19.002045,0 H 15.835038 L 5.3433102,-11.14137 V 0 H 2.9071505 Z"
           style="font-size:33.2617px;font-family:CenturyGothic;fill:#3a3a3a;fill-opacity:1"
           id="path5886" />
        <path
           d="m 30.581924,-18.125028 q 4.076507,0 6.756283,2.955874 2.436159,2.696017 2.436159,6.3827382 0,3.7029627 -2.582329,6.4801847 -2.566088,2.7609809 -6.610113,2.7609809 -4.060266,0 -6.642595,-2.7609809 -2.566089,-2.777222 -2.566089,-6.4801847 0,-3.6704802 2.43616,-6.3664972 2.679776,-2.972115 6.772524,-2.972115 z m 0,2.225026 q -2.825945,0 -4.856078,2.095097 -2.030133,2.095098 -2.030133,5.0672124 0,1.9164456 0.92574,3.5730342 0.925741,1.6565885 2.501124,2.5660881 1.575383,0.8932585 3.459347,0.8932585 1.883963,0 3.459347,-0.8932585 1.575383,-0.9094996 2.501124,-2.5660881 0.92574,-1.6565886 0.92574,-3.5730342 0,-2.9721144 -2.046374,-5.0672124 -2.030133,-2.095097 -4.839837,-2.095097 z"
           style="font-size:33.2617px;font-family:CenturyGothic;fill:#3a3a3a;fill-opacity:1"
           id="path5888" />
        <path
           d="m 45.962213,-24.231668 h 2.28999 v 6.56139 h 3.605516 v 1.948928 H 48.252203 V 0 h -2.28999 V -15.72135 H 42.86017 v -1.948928 h 3.102043 z"
           style="font-size:33.2617px;font-family:CenturyGothic;fill:#3a3a3a;fill-opacity:1"
           id="path5890" />
        <path
           d="M 72.889896,-17.670278 V 0 h -2.241267 v -3.037079 q -1.429213,1.7377939 -3.21573,2.61481133 -1.770276,0.87701747 -3.881615,0.87701747 -3.751686,0 -6.41522,-2.7122577 -2.647294,-2.7284988 -2.647294,-6.6263543 0,-3.8166498 2.679776,-6.5289078 2.679776,-2.712258 6.447703,-2.712258 2.176302,0 3.930337,0.925741 1.770276,0.925741 3.102043,2.777222 v -3.248213 z m -9.094996,1.737794 q -1.900204,0 -3.50807,0.941982 -1.607865,0.92574 -2.566088,2.614811 -0.941981,1.689071 -0.941981,3.5730342 0,1.8677223 0.958222,3.5730341 0.958223,1.7053117 2.566088,2.6635345 1.624107,0.9419818 3.475588,0.9419818 1.867723,0 3.540552,-0.9419818 1.67283,-0.9419817 2.566088,-2.5498471 0.9095,-1.6078653 0.9095,-3.6217573 0,-3.0695614 -2.030133,-5.1321764 -2.013892,-2.062615 -4.969766,-2.062615 z"
           style="font-size:33.2617px;font-family:CenturyGothic;fill:#3a3a3a;fill-opacity:1"
           id="path5892" />
        <path
           d="m 78.02207,-17.670278 h 2.273749 v 3.167008 q 1.36425,-1.819 3.020838,-2.712258 1.656589,-0.9095 3.605517,-0.9095 1.981409,0 3.50807,1.006946 1.542901,1.006946 2.273749,2.712258 0.730847,1.705312 0.730847,5.310828 V 0 h -2.257508 v -8.4291124 q 0,-3.0533196 -0.259857,-4.0765076 -0.406026,-1.754034 -1.52666,-2.631052 -1.120633,-0.893258 -2.923391,-0.893258 -2.062615,0 -3.702963,1.364249 -1.624106,1.364249 -2.14382,3.378141 -0.324822,1.3155265 -0.324822,4.8073553 V 0 H 78.02207 Z"
           style="font-size:33.2617px;font-family:CenturyGothic;fill:#3a3a3a;fill-opacity:1"
           id="path5894" />
        <path
           d="m 99.086735,-24.946275 q 0.779571,0 1.331765,0.552196 0.5522,0.552197 0.5522,1.331768 0,0.76333 -0.5522,1.315526 -0.552194,0.552196 -1.331765,0.552196 -0.76333,0 -1.315526,-0.552196 -0.552197,-0.552196 -0.552197,-1.315526 0,-0.779571 0.552197,-1.331768 0.552196,-0.552196 1.315526,-0.552196 z m -1.136875,7.275997 h 2.28999 V 0 h -2.28999 z"
           style="font-size:33.2617px;font-family:CenturyGothic;fill:#3a3a3a;fill-opacity:1"
           id="path5896" />
        <path
           d="m 114.56446,-23.890606 h 4.75863 q 4.09275,0 5.52197,0.357304 2.04637,0.503473 3.34566,2.078856 1.29928,1.559142 1.29928,3.930338 0,2.387436 -1.2668,3.946578 -1.26681,1.542901 -3.49183,2.078856 -1.62411,0.389786 -6.07416,0.389786 H 116.9519 V 0 h -2.38744 z m 2.38744,2.322473 v 8.120532 l 4.04402,0.04872 q 2.45241,0 3.58928,-0.438509 1.13687,-0.45475 1.78652,-1.445455 0.64964,-1.006945 0.64964,-2.241266 0,-1.201839 -0.64964,-2.192544 -0.64965,-1.006946 -1.72156,-1.429214 -1.05567,-0.422267 -3.47558,-0.422267 z"
           style="font-size:33.2617px;font-family:CenturyGothic;fill:#3a3a3a;fill-opacity:1"
           id="path5898" />
        <path
           d="M 151.49665,-17.670278 V 0 h -2.24127 v -3.037079 q -1.42921,1.7377939 -3.21573,2.61481133 -1.77028,0.87701747 -3.88162,0.87701747 -3.75168,0 -6.41522,-2.7122577 -2.64729,-2.7284988 -2.64729,-6.6263543 0,-3.8166498 2.67978,-6.5289078 2.67977,-2.712258 6.4477,-2.712258 2.1763,0 3.93034,0.925741 1.77027,0.925741 3.10204,2.777222 v -3.248213 z m -9.095,1.737794 q -1.9002,0 -3.50807,0.941982 -1.60786,0.92574 -2.56609,2.614811 -0.94198,1.689071 -0.94198,3.5730342 0,1.8677223 0.95822,3.5730341 0.95823,1.7053117 2.56609,2.6635345 1.62411,0.9419818 3.47559,0.9419818 1.86772,0 3.54055,-0.9419818 1.67283,-0.9419817 2.56609,-2.5498471 0.9095,-1.6078653 0.9095,-3.6217573 0,-3.0695614 -2.03013,-5.1321764 -2.0139,-2.062615 -4.96977,-2.062615 z"
           style="font-size:33.2617px;font-family:CenturyGothic;fill:#3a3a3a;fill-opacity:1"
           id="path5900" />
        <path
           d="m 154.72862,-17.670278 h 2.40367 l 6.07416,13.6100119 5.89551,-13.6100119 h 2.41992 L 160.98143,6.4639436 h -2.40368 l 3.41062,-7.7957109 z"
           style="font-size:33.2617px;font-family:CenturyGothic;fill:#3a3a3a;fill-opacity:1"
           id="path5902" />
      </g>
    </g>
    <g
       id="g5168"
       transform="matrix(1.1669921,0,0,1.1669921,2940.0557,-1087.0538)">
      <g
         id="g2083-7-3"
         transform="matrix(1.6472911,0,0,1.6472911,-1718.6772,-92.623495)">
        <g
           id="g2049-4-8">
          <g
             id="g2037-8-3">
            <path
               id="path2035-0-6"
               style="fill:#f09f20;fill-opacity:1;stroke-width:3.7677"
               d="m -3030.6348,1652.9199 a 26.373959,26.373959 0 0 0 -26.2578,26.3731 26.373959,26.373959 0 0 0 26.3731,26.375 26.373959,26.373959 0 0 0 26.3711,-26.375 26.373959,26.373959 0 0 0 -26.3711,-26.3731 26.373959,26.373959 0 0 0 -0.1153,0 z m -3.3203,6.3672 c 0.1062,0 0.207,0.01 0.3008,0.025 1.3135,0.2576 1.4379,2.3207 0.1191,2.6504 -9.4192,1.8838 -15.8254,10.5495 -14.3183,19.9687 0,1.8839 -2.2598,2.6337 -2.2598,0.3731 -1.8838,-10.9264 4.8959,-20.7199 15.8223,-22.9805 0.1177,-0.024 0.2298,-0.035 0.3359,-0.037 z m -51.5742,10.9609 a 22.98302,22.98302 0 0 0 -22.9844,22.9864 22.98302,22.98302 0 0 0 22.9844,22.9844 22.98302,22.98302 0 0 0 22.9805,-22.9844 22.98302,22.98302 0 0 0 -22.9805,-22.9864 z m -3.4941,5.6133 c 0.088,0 0.171,5e-4 0.2519,0.014 1.1333,0.1854 1.5453,1.9555 0.2266,2.2852 -8.289,1.8838 -13.56,9.4239 -12.4297,17.7128 0.3768,1.1304 -1.885,1.8802 -2.2617,0.3731 -1.5071,-9.796 4.1434,-18.4579 13.9394,-20.3418 0.094,-0.024 0.1859,-0.038 0.2735,-0.043 z m 41.1699,9.8379 c 1.5071,0 1.5071,2.6348 0,2.6348 -1.8839,0 -1.8839,-2.258 0,-2.6348 z m -52.7481,13.5625 c 1.5071,0 1.5071,2.2617 0,2.2617 -1.5071,0 -1.5071,-2.2617 0,-2.2617 z m 48.8711,24.4922 a 21.099167,21.099167 0 0 0 -20.9863,21.0957 21.099167,21.099167 0 0 0 21.0957,21.1016 21.099167,21.099167 0 0 0 21.1016,-21.1016 21.099167,21.099167 0 0 0 -21.1016,-21.0957 21.099167,21.099167 0 0 0 -0.1094,0 z m -2.5,5.2305 c 0.8809,0.1133 1.2895,1.5961 -0.029,1.9258 -7.5354,1.507 -12.4311,8.2888 -11.3007,15.8242 0,1.5071 -1.8829,1.8842 -1.8829,0.7539 -1.1303,-8.6657 4.1449,-16.5791 12.8106,-18.4629 0.1414,-0.047 0.2765,-0.057 0.4023,-0.041 z m -11.33,20.7656 c 1.507,0 1.507,2.2617 0,2.2617 -1.1304,0 -1.1304,-2.2617 0,-2.2617 z"
               transform="matrix(0.26541333,0,0,0.26541333,952.84066,-456.50675)" />
          </g>
          <g
             id="g2047-4-0">
            <g
               id="g2041-0-4">
              <g
                 id="g2039-5-0" />
            </g>
            <g
               id="g2045-7-9">
              <g
                 id="g2043-0-2" />
            </g>
          </g>
        </g>
        <g
           id="g2065-0-4">
          <g
             id="g2053-5-9" />
          <g
             id="g2063-6-2">
            <g
               id="g2057-7-9">
              <g
                 id="g2055-8-1" />
            </g>
            <g
               id="g2061-0-0">
              <g
                 id="g2059-6-9" />
            </g>
          </g>
        </g>
        <g
           id="g2081-5-3">
          <g
             id="g2069-7-0" />
          <g
             id="g2079-3-0">
            <g
               id="g2073-4-3">
              <g
                 id="g2071-3-0" />
            </g>
            <g
               id="g2077-0-1">
              <g
                 id="g2075-4-9" />
            </g>
          </g>
        </g>
      </g>
      <g
         aria-label="Kotani Pay"
         transform="matrix(1.6472911,0,0,1.6472911,-1718.677,-46.087579)"
         id="g2103-8-8"
         style="font-size:33.2617px;font-family:CenturyGothic;fill:#ffffff;fill-opacity:1"
         class="st3 st4 st5">
        <path
           d="m 2.9071505,-23.890606 h 2.4361597 v 8.965068 l 9.5335048,-8.965068 h 3.231972 L 6.6263542,-13.171503 19.002045,0 H 15.835038 L 5.3433102,-11.14137 V 0 H 2.9071505 Z"
           style="font-size:33.2617px;font-family:CenturyGothic;fill:#3a3a3a;fill-opacity:1"
           id="path2085-7-6" />
        <path
           d="m 30.581924,-18.125028 q 4.076507,0 6.756283,2.955874 2.436159,2.696017 2.436159,6.3827382 0,3.7029627 -2.582329,6.4801847 -2.566088,2.7609809 -6.610113,2.7609809 -4.060266,0 -6.642595,-2.7609809 -2.566089,-2.777222 -2.566089,-6.4801847 0,-3.6704802 2.43616,-6.3664972 2.679776,-2.972115 6.772524,-2.972115 z m 0,2.225026 q -2.825945,0 -4.856078,2.095097 -2.030133,2.095098 -2.030133,5.0672124 0,1.9164456 0.92574,3.5730342 0.925741,1.6565885 2.501124,2.5660881 1.575383,0.8932585 3.459347,0.8932585 1.883963,0 3.459347,-0.8932585 1.575383,-0.9094996 2.501124,-2.5660881 0.92574,-1.6565886 0.92574,-3.5730342 0,-2.9721144 -2.046374,-5.0672124 -2.030133,-2.095097 -4.839837,-2.095097 z"
           style="font-size:33.2617px;font-family:CenturyGothic;fill:#3a3a3a;fill-opacity:1"
           id="path2087-5-9" />
        <path
           d="m 45.962213,-24.231668 h 2.28999 v 6.56139 h 3.605516 v 1.948928 H 48.252203 V 0 h -2.28999 V -15.72135 H 42.86017 v -1.948928 h 3.102043 z"
           style="font-size:33.2617px;font-family:CenturyGothic;fill:#3a3a3a;fill-opacity:1"
           id="path2089-9-0" />
        <path
           d="M 72.889896,-17.670278 V 0 h -2.241267 v -3.037079 q -1.429213,1.7377939 -3.21573,2.61481133 -1.770276,0.87701747 -3.881615,0.87701747 -3.751686,0 -6.41522,-2.7122577 -2.647294,-2.7284988 -2.647294,-6.6263543 0,-3.8166498 2.679776,-6.5289078 2.679776,-2.712258 6.447703,-2.712258 2.176302,0 3.930337,0.925741 1.770276,0.925741 3.102043,2.777222 v -3.248213 z m -9.094996,1.737794 q -1.900204,0 -3.50807,0.941982 -1.607865,0.92574 -2.566088,2.614811 -0.941981,1.689071 -0.941981,3.5730342 0,1.8677223 0.958222,3.5730341 0.958223,1.7053117 2.566088,2.6635345 1.624107,0.9419818 3.475588,0.9419818 1.867723,0 3.540552,-0.9419818 1.67283,-0.9419817 2.566088,-2.5498471 0.9095,-1.6078653 0.9095,-3.6217573 0,-3.0695614 -2.030133,-5.1321764 -2.013892,-2.062615 -4.969766,-2.062615 z"
           style="font-size:33.2617px;font-family:CenturyGothic;fill:#3a3a3a;fill-opacity:1"
           id="path2091-5-1" />
        <path
           d="m 78.02207,-17.670278 h 2.273749 v 3.167008 q 1.36425,-1.819 3.020838,-2.712258 1.656589,-0.9095 3.605517,-0.9095 1.981409,0 3.50807,1.006946 1.542901,1.006946 2.273749,2.712258 0.730847,1.705312 0.730847,5.310828 V 0 h -2.257508 v -8.4291124 q 0,-3.0533196 -0.259857,-4.0765076 -0.406026,-1.754034 -1.52666,-2.631052 -1.120633,-0.893258 -2.923391,-0.893258 -2.062615,0 -3.702963,1.364249 -1.624106,1.364249 -2.14382,3.378141 -0.324822,1.3155265 -0.324822,4.8073553 V 0 H 78.02207 Z"
           style="font-size:33.2617px;font-family:CenturyGothic;fill:#3a3a3a;fill-opacity:1"
           id="path2093-3-6" />
        <path
           d="m 99.086735,-24.946275 q 0.779571,0 1.331765,0.552196 0.5522,0.552197 0.5522,1.331768 0,0.76333 -0.5522,1.315526 -0.552194,0.552196 -1.331765,0.552196 -0.76333,0 -1.315526,-0.552196 -0.552197,-0.552196 -0.552197,-1.315526 0,-0.779571 0.552197,-1.331768 0.552196,-0.552196 1.315526,-0.552196 z m -1.136875,7.275997 h 2.28999 V 0 h -2.28999 z"
           style="font-size:33.2617px;font-family:CenturyGothic;fill:#3a3a3a;fill-opacity:1"
           id="path2095-2-4" />
        <path
           d="m 114.56446,-23.890606 h 4.75863 q 4.09275,0 5.52197,0.357304 2.04637,0.503473 3.34566,2.078856 1.29928,1.559142 1.29928,3.930338 0,2.387436 -1.2668,3.946578 -1.26681,1.542901 -3.49183,2.078856 -1.62411,0.389786 -6.07416,0.389786 H 116.9519 V 0 h -2.38744 z m 2.38744,2.322473 v 8.120532 l 4.04402,0.04872 q 2.45241,0 3.58928,-0.438509 1.13687,-0.45475 1.78652,-1.445455 0.64964,-1.006945 0.64964,-2.241266 0,-1.201839 -0.64964,-2.192544 -0.64965,-1.006946 -1.72156,-1.429214 -1.05567,-0.422267 -3.47558,-0.422267 z"
           style="font-size:33.2617px;font-family:CenturyGothic;fill:#3a3a3a;fill-opacity:1"
           id="path2097-7-4" />
        <path
           d="M 151.49665,-17.670278 V 0 h -2.24127 v -3.037079 q -1.42921,1.7377939 -3.21573,2.61481133 -1.77028,0.87701747 -3.88162,0.87701747 -3.75168,0 -6.41522,-2.7122577 -2.64729,-2.7284988 -2.64729,-6.6263543 0,-3.8166498 2.67978,-6.5289078 2.67977,-2.712258 6.4477,-2.712258 2.1763,0 3.93034,0.925741 1.77027,0.925741 3.10204,2.777222 v -3.248213 z m -9.095,1.737794 q -1.9002,0 -3.50807,0.941982 -1.60786,0.92574 -2.56609,2.614811 -0.94198,1.689071 -0.94198,3.5730342 0,1.8677223 0.95822,3.5730341 0.95823,1.7053117 2.56609,2.6635345 1.62411,0.9419818 3.47559,0.9419818 1.86772,0 3.54055,-0.9419818 1.67283,-0.9419817 2.56609,-2.5498471 0.9095,-1.6078653 0.9095,-3.6217573 0,-3.0695614 -2.03013,-5.1321764 -2.0139,-2.062615 -4.96977,-2.062615 z"
           style="font-size:33.2617px;font-family:CenturyGothic;fill:#3a3a3a;fill-opacity:1"
           id="path2099-3-8" />
        <path
           d="m 154.72862,-17.670278 h 2.40367 l 6.07416,13.6100119 5.89551,-13.6100119 h 2.41992 L 160.98143,6.4639436 h -2.40368 l 3.41062,-7.7957109 z"
           style="font-size:33.2617px;font-family:CenturyGothic;fill:#3a3a3a;fill-opacity:1"
           id="path2101-9-6" />
      </g>
      <rect
         style="fill:none;fill-opacity:1;stroke:#f09f20;stroke-width:0.988175;stroke-linecap:butt;stroke-linejoin:miter;stroke-miterlimit:4;stroke-dasharray:none;stroke-opacity:1;stop-color:#000000"
         id="rect3246"
         width="330.32263"
         height="104.28329"
         x="-1739.74"
         y="-123.38189" />
      <path
         style="opacity:0.517685;fill:none;stroke:#f09f20;stroke-width:1.08342;stroke-linecap:butt;stroke-linejoin:miter;stroke-miterlimit:4;stroke-dasharray:none;stroke-opacity:1"
         d="m -1765.4414,-85.814859 h 381.7253"
         id="path4073" />
      <path
         style="opacity:0.517685;fill:none;stroke:#f09f20;stroke-width:1.08342;stroke-linecap:butt;stroke-linejoin:miter;stroke-miterlimit:4;stroke-dasharray:none;stroke-opacity:1"
         d="m -1765.4414,-45.069027 h 381.7253"
         id="path4075" />
      <path
         style="opacity:0.517685;fill:none;stroke:#f09f20;stroke-width:0.693193;stroke-linecap:butt;stroke-linejoin:miter;stroke-miterlimit:4;stroke-dasharray:none;stroke-opacity:1"
         d="M -1714.1969,7.2422843 V -149.02374"
         id="path4077" />
      <path
         style="opacity:0.517685;fill:none;stroke:#f09f20;stroke-width:0.693193;stroke-linecap:butt;stroke-linejoin:miter;stroke-miterlimit:4;stroke-dasharray:none;stroke-opacity:1"
         d="M -1435.7685,7.242285 V -149.02374"
         id="path4079" />
    </g>
    <text
       xml:space="preserve"
       style="font-size:29.2574px;line-height:1.25;font-family:sans-serif;stroke-width:0.325082"
       x="1102.0133"
       y="-1342.6035"
       id="text5010"><tspan
         sodipodi:role="line"
         id="tspan5008"
         x="1102.0133"
         y="-1342.6035"
         style="font-style:normal;font-variant:normal;font-weight:bold;font-stretch:normal;font-size:29.2574px;font-family:'Century Gothic';-inkscape-font-specification:'Century Gothic';text-align:center;text-anchor:middle;stroke-width:0.325082">Kotani Pay Brand Guide</tspan></text>
  </g>
</svg>
